<?xml version="1.0" encoding="utf-8"?>
<svg xmlns="http://www.w3.org/2000/svg">
<symbol id="angle-icon" width="12" height="17" viewBox="0 0 12 17">
	<path transform="translate(-588 -1316)" d="M592.57 1318.43l4.97 4.99c.59.59.59 1.54 0 2.13l-4.97 4.99a1.5 1.5 0 0 1-2.13 0 1.51 1.51 0 0 1 0-2.14l3.9-3.92-3.9-3.91a1.51 1.51 0 0 1 0-2.14 1.5 1.5 0 0 1 2.13 0z"/>
</symbol>
<symbol id="arrleft-icon" viewBox="0 0 512 512">
		<path d="M492,236H68.442l70.164-69.824c7.829-7.792,7.859-20.455,0.067-28.284c-7.792-7.83-20.456-7.859-28.285-0.068
			l-104.504,104c-0.007,0.006-0.012,0.013-0.018,0.019c-7.809,7.792-7.834,20.496-0.002,28.314c0.007,0.006,0.012,0.013,0.018,0.019
			l104.504,104c7.828,7.79,20.492,7.763,28.285-0.068c7.792-7.829,7.762-20.492-0.067-28.284L68.442,276H492
			c11.046,0,20-8.954,20-20C512,244.954,503.046,236,492,236z"/>

</symbol>
<symbol id="arrright-icon" viewBox="0 0 512 512">
		<path d="M506.134,241.843c-0.006-0.006-0.011-0.013-0.018-0.019l-104.504-104c-7.829-7.791-20.492-7.762-28.285,0.068
			c-7.792,7.829-7.762,20.492,0.067,28.284L443.558,236H20c-11.046,0-20,8.954-20,20c0,11.046,8.954,20,20,20h423.557
			l-70.162,69.824c-7.829,7.792-7.859,20.455-0.067,28.284c7.793,7.831,20.457,7.858,28.285,0.068l104.504-104
			c0.006-0.006,0.011-0.013,0.018-0.019C513.968,262.339,513.943,249.635,506.134,241.843z"/>

</symbol>
<symbol id="calc-icon" viewBox="0 0 19 23">
  <path d="M1146.86,500h-16.72a1.17,1.17,0,0,0-1.14,1.194v20.613a1.17,1.17,0,0,0,1.14,1.194h16.72a1.16,1.16,0,0,0,1.14-.876V501.512A1.283,1.283,0,0,0,1146.86,500ZM1135,519c0,0.351.33,0,0,0h-3c-0.33,0,0,.351,0,0v-3c0-.351-0.33,0,0,0h3c0.33,0,0-.351,0,0v3h0Zm0-5h-3v-3c0-.351-0.33,0,0,0h3v3Zm5,5c0,0.351.33,0,0,0h-3c-0.33,0,0,.351,0,0v-3c0-.351-0.33,0,0,0h3c0.33,0,0-.351,0,0v3Zm0-5-3.05-.019c-0.33,0,.05.369,0.05,0.019v-3c0-.351-0.33,0,0,0h3c0.33,0,0-.351,0,0v3Zm5,5c0,0.351.33,0,0,0h-3c-0.33,0,0,.351,0,0v-8c0-.351-0.33,0,0,0h3c0.33,0,0-.351,0,0v8Zm-1-11h-11a1.214,1.214,0,0,1-1-1v-3a1.213,1.213,0,0,1,1-1h11a1.213,1.213,0,0,1,1,1v3A0.94,0.94,0,0,1,1144,508Z" transform="translate(-1129 -500)"/>

</symbol>
<symbol id="card-icon" viewBox="0 0 16 13">
  <path d="M1353,93h-0.25l-1.79,6.275-0.01,0a0.989,0.989,0,0,1-.95.73h-8a0.989,0.989,0,0,1-.95-0.73l-0.01,0L1339.25,93H1339a1,1,0,0,1,0-2h2.38l1.73-3.447v0A1,1,0,0,1,1345,88a1.083,1.083,0,0,1-.11.443v0L1343.62,91h4.76l-1.27-2.553v0A1.083,1.083,0,0,1,1347,88a1,1,0,0,1,1.89-.442v0L1350.62,91H1353A1,1,0,0,1,1353,93Zm-10.25,5h6.5l1.42-5h-9.34Z" transform="translate(-1338 -87)"/>

</symbol>
<symbol id="check-icon" viewBox="0 0 9.06 6.22">
  <path d="M1002.17,1739l2.83,2.83a1,1,0,0,1-1.41,1.41l-2.83-2.83A1,1,0,1,1,1002.17,1739Zm7.07-1.41a1,1,0,0,1,0,1.41l-4.24,4.24a1,1,0,0,1-1.41-1.41l4.24-4.24A1,1,0,0,1,1009.24,1737.59Z" transform="translate(-1000.47 -1737.31)"/>

</symbol>
<symbol id="clock-icon" viewBox="0 0 97.16 97.16">

		<path d="M48.58,0C21.793,0,0,21.793,0,48.58s21.793,48.58,48.58,48.58s48.58-21.793,48.58-48.58S75.367,0,48.58,0z M48.58,86.823
			c-21.087,0-38.244-17.155-38.244-38.243S27.493,10.337,48.58,10.337S86.824,27.492,86.824,48.58S69.667,86.823,48.58,86.823z"/>
		<path d="M73.898,47.08H52.066V20.83c0-2.209-1.791-4-4-4c-2.209,0-4,1.791-4,4v30.25c0,2.209,1.791,4,4,4h25.832
			c2.209,0,4-1.791,4-4S76.107,47.08,73.898,47.08z"/>

</symbol>
<symbol id="enter-icon" viewBox="0 0 14 16">
  <path d="M1335,30h-6a4,4,0,0,1-4-4V22a2,2,0,0,1,2-2V19a5,5,0,1,1,10,0v1a2,2,0,0,1,2,2v4A4,4,0,0,1,1335,30Zm-4-4.277V27a1,1,0,0,0,2,0V25.722A1.982,1.982,0,0,0,1334,24a2,2,0,1,0-4,0A1.982,1.982,0,0,0,1331,25.722ZM1332,16a2.98,2.98,0,0,0-2.82,4h5.64A2.98,2.98,0,0,0,1332,16Z" transform="translate(-1325 -14)"/>

</symbol>
<symbol id="location-icon" viewBox="0 0 97.713 97.713">
	<path d="M48.855,0C29.021,0,12.883,16.138,12.883,35.974c0,5.174,1.059,10.114,3.146,14.684
		c8.994,19.681,26.238,40.46,31.31,46.359c0.38,0.441,0.934,0.695,1.517,0.695s1.137-0.254,1.517-0.695
		c5.07-5.898,22.314-26.676,31.311-46.359c2.088-4.57,3.146-9.51,3.146-14.684C84.828,16.138,68.69,0,48.855,0z M48.855,54.659
		c-10.303,0-18.686-8.383-18.686-18.686c0-10.304,8.383-18.687,18.686-18.687s18.686,8.383,18.686,18.687
		C67.542,46.276,59.159,54.659,48.855,54.659z"/>

</symbol>
<symbol id="mail-icon" viewBox="0 0 483.3 483.3">
		<path d="M424.3,57.75H59.1c-32.6,0-59.1,26.5-59.1,59.1v249.6c0,32.6,26.5,59.1,59.1,59.1h365.1c32.6,0,59.1-26.5,59.1-59.1
			v-249.5C483.4,84.35,456.9,57.75,424.3,57.75z M456.4,366.45c0,17.7-14.4,32.1-32.1,32.1H59.1c-17.7,0-32.1-14.4-32.1-32.1v-249.5
			c0-17.7,14.4-32.1,32.1-32.1h365.1c17.7,0,32.1,14.4,32.1,32.1v249.5H456.4z"/>
		<path d="M304.8,238.55l118.2-106c5.5-5,6-13.5,1-19.1c-5-5.5-13.5-6-19.1-1l-163,146.3l-31.8-28.4c-0.1-0.1-0.2-0.2-0.2-0.3
			c-0.7-0.7-1.4-1.3-2.2-1.9L78.3,112.35c-5.6-5-14.1-4.5-19.1,1.1c-5,5.6-4.5,14.1,1.1,19.1l119.6,106.9L60.8,350.95
			c-5.4,5.1-5.7,13.6-0.6,19.1c2.7,2.8,6.3,4.3,9.9,4.3c3.3,0,6.6-1.2,9.2-3.6l120.9-113.1l32.8,29.3c2.6,2.3,5.8,3.4,9,3.4
			c3.2,0,6.5-1.2,9-3.5l33.7-30.2l120.2,114.2c2.6,2.5,6,3.7,9.3,3.7c3.6,0,7.1-1.4,9.8-4.2c5.1-5.4,4.9-14-0.5-19.1L304.8,238.55z"/>

</symbol>
<symbol id="phone-icon" viewBox="0 0 27.442 27.442">
	<path d="M19.494,0H7.948C6.843,0,5.951,0.896,5.951,1.999v23.446c0,1.102,0.892,1.997,1.997,1.997h11.546
		c1.103,0,1.997-0.895,1.997-1.997V1.999C21.491,0.896,20.597,0,19.494,0z M10.872,1.214h5.7c0.144,0,0.261,0.215,0.261,0.481
		s-0.117,0.482-0.261,0.482h-5.7c-0.145,0-0.26-0.216-0.26-0.482C10.612,1.429,10.727,1.214,10.872,1.214z M13.722,25.469
		c-0.703,0-1.275-0.572-1.275-1.276s0.572-1.274,1.275-1.274c0.701,0,1.273,0.57,1.273,1.274S14.423,25.469,13.722,25.469z
		 M19.995,21.1H7.448V3.373h12.547V21.1z"/>

</symbol>
<symbol id="search-icon" viewBox="0 0 16 16">
  <path d="M1288.42,97.591l-3.12-3.121a0.036,0.036,0,0,1-.02-0.018,6.53,6.53,0,1,0-2.83,2.824c0.01,0.007.01,0.015,0.02,0.022l3.12,3.122A2,2,0,1,0,1288.42,97.591Zm-8.93-1.6a4.5,4.5,0,1,1,4.5-4.5A4.5,4.5,0,0,1,1279.49,95.993Z" transform="translate(-1273 -85)"/>

</symbol>
<symbol id="user-icon" viewBox="0 0 14 15">
  <path d="M1426,30a1,1,0,0,1-1-1,4.982,4.982,0,0,0-1.59-3.637,4.371,4.371,0,0,1-6.82,0A4.945,4.945,0,0,0,1415,29h0a1,1,0,1,1-2,0,6.971,6.971,0,0,1,2.53-5.35A6.945,6.945,0,0,1,1415,21c0-3.314,2.24-6,5-6s5,2.686,5,6a6.766,6.766,0,0,1-.54,2.65A6.948,6.948,0,0,1,1427,29h0A1,1,0,0,1,1426,30Zm-6-13c-1.66,0-3,1.791-3,4s1.34,4,3,4,3-1.791,3-4S1421.66,17,1420,17Z" transform="translate(-1413 -15)"/>
</symbol>

<symbol id="fb-icon" viewBox="0 0 96.1 96.1">
	<path d="M72.1,0L59.6,0c-14,0-23.1,9.3-23.1,23.7v10.9H24c-1.1,0-2,0.9-2,2v15.8c0,1.1,0.9,2,2,2h12.5v39.9
		c0,1.1,0.9,2,2,2h16.4c1.1,0,2-0.9,2-2V54.3h14.7c1.1,0,2-0.9,2-2l0-15.8c0-0.5-0.2-1-0.6-1.4s-0.9-0.6-1.4-0.6H56.8v-9.2
		c0-4.4,1.1-6.7,6.8-6.7l8.4,0c1.1,0,2-0.9,2-2V2C74,0.9,73.2,0,72.1,0z" transform="translate(0 10)"/>
</symbol>
</svg>
