<svg xmlns="http://www.w3.org/2000/svg" xmlns:xlink="http://www.w3.org/1999/xlink" width="26" height="35" viewBox="0 0 26 35"><defs><path id="px0ma" d="M1302 990a1 1 0 0 1-.8-.4l-8.62-12.16-.32-.45a12.01 12.01 0 0 1 9.74-19 12.01 12.01 0 0 1 9.73 19l-.42.6-8.51 12a1 1 0 0 1-.8.4zm0-24a4 4 0 1 0 0 8 4 4 0 0 0 0-8z"/><linearGradient id="px0mb" x1="1302" x2="1302" y1="990" y2="958" gradientUnits="userSpaceOnUse"><stop offset="0" stop-opacity=".08"/><stop offset="1" stop-color="#fff" stop-opacity=".08"/></linearGradient></defs><g><g transform="translate(-1289 -956)"><use fill="#07b0c8" xlink:href="#px0ma"/><use fill="url(#px0mb)" xlink:href="#px0ma"/></g></g></svg>