<svg xmlns="http://www.w3.org/2000/svg" width="19" height="23" viewBox="0 0 19 23">
  <path d="M1146.86,500h-16.72a1.17,1.17,0,0,0-1.14,1.194v20.613a1.17,1.17,0,0,0,1.14,1.194h16.72a1.16,1.16,0,0,0,1.14-.876V501.512A1.283,1.283,0,0,0,1146.86,500ZM1135,519c0,0.351.33,0,0,0h-3c-0.33,0,0,.351,0,0v-3c0-.351-0.33,0,0,0h3c0.33,0,0-.351,0,0v3h0Zm0-5h-3v-3c0-.351-0.33,0,0,0h3v3Zm5,5c0,0.351.33,0,0,0h-3c-0.33,0,0,.351,0,0v-3c0-.351-0.33,0,0,0h3c0.33,0,0-.351,0,0v3Zm0-5-3.05-.019c-0.33,0,.05.369,0.05,0.019v-3c0-.351-0.33,0,0,0h3c0.33,0,0-.351,0,0v3Zm5,5c0,0.351.33,0,0,0h-3c-0.33,0,0,.351,0,0v-8c0-.351-0.33,0,0,0h3c0.33,0,0-.351,0,0v8Zm-1-11h-11a1.214,1.214,0,0,1-1-1v-3a1.213,1.213,0,0,1,1-1h11a1.213,1.213,0,0,1,1,1v3A0.94,0.94,0,0,1,1144,508Z" transform="translate(-1129 -500)"/>
</svg>
