<svg id="Слой_1" data-name="Слой 1" width="26" height="35" xmlns="http://www.w3.org/2000/svg" xmlns:xlink="http://www.w3.org/1999/xlink" viewBox="0 0 23.96 32.01"><defs><linearGradient id="Безымянный_градиент" x1="1301.99" y1="-954.06" x2="1301.99" y2="-922.05" gradientTransform="matrix(1, 0, 0, -1, -1289, -920.06)" gradientUnits="userSpaceOnUse"><stop offset="0" stop-opacity="0.08"/><stop offset="1" stop-color="#fff" stop-opacity="0.08"/></linearGradient></defs><title>location-icon-g_bryza</title><path id="px0ma" d="M13,34a1,1,0,0,1-.8-.4L3.58,21.44,3.26,21a12,12,0,1,1,19.47,0l-.42.6-8.51,12a1,1,0,0,1-.8.4Zm0-24a4,4,0,1,0,4,4A4,4,0,0,0,13,10Z" transform="translate(-1.02 -1.99)" fill="#166ed0"/><path d="M13,34a1,1,0,0,1-.8-.4L3.58,21.44,3.26,21a12,12,0,1,1,19.47,0l-.42.6-8.51,12a1,1,0,0,1-.8.4Zm0-24a4,4,0,1,0,4,4A4,4,0,0,0,13,10Z" transform="translate(-1.02 -1.99)" fill="url(#Безымянный_градиент)"/></svg>